<?xml version="1.0" encoding="UTF-8" standalone="no"?>
<svg
   inkscape:version="1.1.2 (0a00cf5339, 2022-02-04)"
   sodipodi:docname="test.svg"
   version="1.1"
   width="125.86558"
   height="129.60176"
   id="svg1042"
   xmlns:inkscape="http://www.inkscape.org/namespaces/inkscape"
   xmlns:sodipodi="http://sodipodi.sourceforge.net/DTD/sodipodi-0.dtd"
   xmlns="http://www.w3.org/2000/svg"
   xmlns:svg="http://www.w3.org/2000/svg">
  <sodipodi:namedview
     inkscape:zoom="0.53149812"
     inkscape:cx="-399.81327"
     inkscape:cy="192.85111"
     inkscape:window-width="1536"
     inkscape:window-height="808"
     inkscape:window-x="0"
     inkscape:window-y="0"
     inkscape:window-maximized="1"
     fit-margin-top="0"
     fit-margin-left="0"
     fit-margin-right="0"
     fit-margin-bottom="0"
     id="namedview1021"
     pagecolor="#ffffff"
     bordercolor="#666666"
     borderopacity="1.0"
     inkscape:pageshadow="2"
     inkscape:pageopacity="0.0"
     inkscape:pagecheckerboard="0" />
  <defs
     id="defs1023" />
  <g
     id="logo"
     transform="matrix(3.9634245,0,0,3.9634245,-1866.9928,-978.98927)">
    <path
       style="fill:#333333;stroke:none;stroke-width:0.264583px;stroke-linecap:butt;stroke-linejoin:miter;stroke-opacity:1"
       d="m 486.15026,252.1699 c -0.39654,-4.36678 -3.55095,-5.71117 -6.20069,-4.97247 -2.90456,0.59642 -5.34633,2.41048 -7.29582,6.67165 -1.9495,4.26116 -1.93755,10.48387 -0.9155,16.76048 1.28445,5.46002 5.62969,9.25118 11.23756,9.06953 1.91204,-0.22951 3.45238,-2.16916 3.34553,-4.02633 -0.37652,-6.54423 -0.57011,-12.26998 -0.52586,-15.38252 0.0442,-3.11255 0.3263,-3.61188 0.35481,-8.12034 z"
       id="path25966"
       sodipodi:nodetypes="cczccsscc" />
    <g
       aria-label="0 1"
       id="text6521"
       style="font-size:14.1111px;text-align:center;text-anchor:middle;fill:#ffffff;stroke:#ffffff;stroke-width:1.32292">
      <g
         id="path26674">
        <path
           style="color:#000000;-inkscape-font-specification:FreeMono;stroke:none;stroke-linecap:round;stroke-linejoin:round;-inkscape-stroke:none"
           d="m 482.51432,256.08851 v 1.41111 q 0,1.66511 -0.73378,2.70933 -0.73378,1.04422 -1.905,1.04422 -1.17122,0 -1.905,-1.04422 -0.73377,-1.04422 -0.73377,-2.70933 v -1.41111 q 0,-1.67922 0.73377,-2.72344 0.73378,-1.04423 1.905,-1.04423 1.17122,0 1.905,1.04423 0.73378,1.04422 0.73378,2.72344 z m -2.63878,-3.18911 q -0.95955,0 -1.50989,0.97367 -0.55033,0.95955 -0.55033,2.28599 v 1.25589 q 0,1.38289 0.56445,2.32833 0.57855,0.93134 1.49577,0.93134 0.95956,0 1.50989,-0.95956 0.55033,-0.97367 0.55033,-2.30011 v -1.25589 q 0,-1.38288 -0.57855,-2.31422 -0.56445,-0.94544 -1.48167,-0.94544 z"
           id="path26681" />
        <path
           style="color:#000000;-inkscape-font-specification:FreeMono;stroke:none;stroke-linecap:round;stroke-linejoin:round;-inkscape-stroke:none"
           d="m 479.875,251.66016 c -0.97739,0 -1.86094,0.49261 -2.44531,1.32421 -0.58508,0.83262 -0.85352,1.8877 -0.85352,3.10352 V 257.5 c 0,1.20723 0.26925,2.25838 0.85352,3.08984 0.58437,0.8316 1.46792,1.32422 2.44531,1.32422 0.97739,0 1.8629,-0.49262 2.44727,-1.32422 0.58427,-0.83146 0.85351,-1.8826 0.85351,-3.08984 v -1.41211 c 0,-1.21583 -0.26843,-2.2709 -0.85351,-3.10352 -0.58437,-0.8316 -1.46988,-1.32421 -2.44727,-1.32421 z m 0,1.90039 c 0.38421,0 0.6186,0.12815 0.91406,0.62304 a 0.66152613,0.66152613 0 0 0 0.006,0.01 c 0.30827,0.49624 0.47852,1.13517 0.47852,1.96484 v 1.25586 c 0,0.79282 -0.15932,1.43751 -0.46289,1.97461 -0.28342,0.49285 -0.51734,0.625 -0.93555,0.625 -0.3861,0 -0.6283,-0.13402 -0.92969,-0.61719 -0.30127,-0.50751 -0.46875,-1.15376 -0.46875,-1.98242 v -1.25586 c 0,-0.79281 0.16145,-1.42948 0.46289,-1.95508 a 0.66152613,0.66152613 0 0 0 0.002,-0.004 c 0.28586,-0.50575 0.51762,-0.63867 0.93359,-0.63867 z"
           id="path26683" />
      </g>
      <g
         id="path26676">
        <path
           style="color:#000000;-inkscape-font-specification:FreeMono;stroke:none;stroke-linecap:round;stroke-linejoin:round;-inkscape-stroke:none"
           d="m 480.17188,265.67325 v 8.05744 h 1.96144 q 0.381,0 0.381,0.28222 0,0.29634 -0.381,0.29634 h -4.50144 q -0.39511,0 -0.39511,-0.29634 0,-0.28222 0.39511,-0.28222 h 1.96144 v -7.29544 l -1.59455,1.59456 q -0.11289,0.11288 -0.29634,0.11288 -0.11289,0 -0.19755,-0.0847 -0.0706,-0.0988 -0.0706,-0.23989 0,-0.127 0.15522,-0.28222 l 1.86267,-1.86267 z"
           id="path26687" />
        <path
           style="color:#000000;-inkscape-font-specification:FreeMono;stroke:none;stroke-linecap:round;stroke-linejoin:round;-inkscape-stroke:none"
           d="m 479.45312,265.01172 a 0.66152613,0.66152613 0 0 0 -0.46875,0.19336 l -1.86328,1.86328 c -0.16726,0.16726 -0.34765,0.39585 -0.34765,0.75 0,0.20439 0.0597,0.43795 0.19336,0.625 a 0.66152613,0.66152613 0 0 0 0.0703,0.082 c 0.16036,0.16044 0.42533,0.2793 0.66601,0.2793 0.25797,0 0.56173,-0.10472 0.76368,-0.30664 l 0.46484,-0.46485 v 5.03516 h -1.29883 c -0.21045,0 -0.44607,0.0271 -0.68164,0.19531 -0.23557,0.16827 -0.375,0.50159 -0.375,0.75 0,0.24577 0.1281,0.57361 0.36328,0.75 0.23519,0.17639 0.47897,0.20703 0.69336,0.20703 h 4.5 c 0.21275,0 0.45922,-0.0323 0.69141,-0.21289 0.23218,-0.18059 0.35156,-0.50362 0.35156,-0.74414 0,-0.2429 -0.1303,-0.57156 -0.36328,-0.74414 -0.23298,-0.17258 -0.47103,-0.20117 -0.67969,-0.20117 h -1.29883 v -7.39453 a 0.66152613,0.66152613 0 0 0 -0.66211,-0.66211 z"
           id="path26689" />
      </g>
    </g>
    <path
       style="fill:#b3b3b3;stroke:none;stroke-width:0.264583px;stroke-linecap:butt;stroke-linejoin:miter;stroke-opacity:1"
       d="m 487.71747,252.1699 c 0.39654,-4.36678 3.55095,-5.71117 6.20069,-4.97247 2.90456,0.59642 5.34633,2.41048 7.29582,6.67165 1.9495,4.26116 1.93755,10.48387 0.9155,16.76048 -1.28445,5.46002 -5.62969,9.25118 -11.23756,9.06953 -1.91204,-0.22951 -3.45238,-2.16916 -3.34553,-4.02633 0.37652,-6.54423 0.57011,-12.26998 0.52586,-15.38252 -0.0442,-3.11255 -0.3263,-3.61188 -0.35481,-8.12034 z"
       id="path23024"
       sodipodi:nodetypes="cczccsscc" />
    <g
       aria-label="1 0"
       id="text23030"
       style="font-size:14.1111px;text-align:center;text-anchor:middle;stroke:#000000;stroke-width:1.32292">
      <g
         id="path26657">
        <path
           style="color:#000000;-inkscape-font-specification:FreeMono;fill:#000000;stroke:none;stroke-linecap:round;stroke-linejoin:round;-inkscape-stroke:none"
           d="m 494.28323,252.40551 v 8.05744 h 1.96145 q 0.381,0 0.381,0.28222 0,0.29633 -0.381,0.29633 h -4.50144 q -0.39512,0 -0.39512,-0.29633 0,-0.28222 0.39512,-0.28222 h 1.96144 v -7.29544 l -1.59456,1.59455 q -0.11288,0.11289 -0.29633,0.11289 -0.11289,0 -0.19755,-0.0847 -0.0706,-0.0988 -0.0706,-0.23989 0,-0.127 0.15522,-0.28222 l 1.86267,-1.86267 z"
           id="path26664" />
        <path
           style="color:#000000;-inkscape-font-specification:FreeMono;fill:#000000;stroke:none;stroke-linecap:round;stroke-linejoin:round;-inkscape-stroke:none"
           d="m 493.56445,251.74414 a 0.66152613,0.66152613 0 0 0 -0.46875,0.19336 l -1.86328,1.86328 c -0.16726,0.16726 -0.34765,0.39586 -0.34765,0.75 0,0.20439 0.0597,0.43795 0.19335,0.625 a 0.66152613,0.66152613 0 0 0 0.0703,0.082 c 0.16036,0.16044 0.42532,0.2793 0.66601,0.2793 0.25798,0 0.56174,-0.10469 0.76367,-0.30664 l 0.46485,-0.46485 v 5.03516 h -1.29883 c -0.21045,0 -0.44607,0.0271 -0.68164,0.19531 -0.23557,0.16826 -0.375,0.50159 -0.375,0.75 0,0.24578 0.12809,0.57362 0.36328,0.75 0.23519,0.17639 0.47897,0.20704 0.69336,0.20703 h 4.5 c 0.21274,0 0.46117,-0.0323 0.69336,-0.21289 0.23219,-0.18058 0.34961,-0.50362 0.34961,-0.74414 0,-0.2429 -0.1303,-0.57156 -0.36328,-0.74414 -0.23299,-0.17258 -0.47103,-0.20117 -0.67969,-0.20117 h -1.29883 v -7.39453 a 0.66152613,0.66152613 0 0 0 -0.66211,-0.66211 z"
           id="path26666" />
      </g>
      <g
         id="path26659">
        <path
           style="color:#000000;-inkscape-font-specification:FreeMono;fill:#000000;stroke:none;stroke-linecap:round;stroke-linejoin:round;-inkscape-stroke:none"
           d="m 496.62568,269.35625 v 1.41111 q 0,1.66511 -0.73378,2.70933 -0.73378,1.04422 -1.905,1.04422 -1.17122,0 -1.905,-1.04422 -0.73378,-1.04422 -0.73378,-2.70933 v -1.41111 q 0,-1.67922 0.73378,-2.72344 0.73378,-1.04422 1.905,-1.04422 1.17122,0 1.905,1.04422 0.73378,1.04422 0.73378,2.72344 z m -2.63878,-3.18911 q -0.95955,0 -1.50989,0.97367 -0.55033,0.95955 -0.55033,2.28599 v 1.25589 q 0,1.38289 0.56444,2.32833 0.57856,0.93134 1.49578,0.93134 0.95956,0 1.50989,-0.95956 0.55033,-0.97366 0.55033,-2.30011 v -1.25589 q 0,-1.38288 -0.57855,-2.31422 -0.56445,-0.94544 -1.48167,-0.94544 z"
           id="path26670" />
        <path
           style="color:#000000;-inkscape-font-specification:FreeMono;fill:#000000;stroke:none;stroke-linecap:round;stroke-linejoin:round;-inkscape-stroke:none"
           d="m 493.98633,264.92773 c -0.97739,0 -1.86094,0.49262 -2.44531,1.32422 -0.58509,0.83262 -0.85352,1.88769 -0.85352,3.10352 v 1.41211 c 0,1.20723 0.26924,2.25837 0.85352,3.08984 0.58437,0.8316 1.46792,1.32422 2.44531,1.32422 0.97739,0 1.86289,-0.49262 2.44726,-1.32422 0.58428,-0.83147 0.85352,-1.88261 0.85352,-3.08984 v -1.41211 c 0,-1.21583 -0.26843,-2.2709 -0.85352,-3.10352 -0.58437,-0.8316 -1.46987,-1.32422 -2.44726,-1.32422 z m 0,1.90039 c 0.38421,0 0.6186,0.12816 0.91406,0.62305 a 0.66152613,0.66152613 0 0 0 0.006,0.01 c 0.30827,0.49624 0.47852,1.13712 0.47852,1.96679 v 1.25586 c 0,0.79116 -0.1586,1.43429 -0.46094,1.97071 -4.1e-4,7.1e-4 -0.002,-7.2e-4 -0.002,0 -0.28378,0.49402 -0.51693,0.62695 -0.93554,0.62695 -0.3861,0 -0.62829,-0.13402 -0.92969,-0.61719 -0.30126,-0.50751 -0.46875,-1.15181 -0.46875,-1.98047 v -1.25586 c 0,-0.79281 0.16145,-1.43143 0.46289,-1.95703 a 0.66152613,0.66152613 0 0 0 0.002,-0.004 c 0.28587,-0.50575 0.51763,-0.63868 0.9336,-0.63868 z"
           id="path26672" />
      </g>
    </g>
  </g>
</svg>
